Coordinates
version=1
nRows=5
nColumns=46
inDegrees=yes

Units are S.I. units (second, meters, Newtons, ...)
Angles are in degrees.

endheader
time	pelvis_tilt	pelvis_list	pelvis_rotation	pelvis_tx	pelvis_ty	pelvis_tz	bb_angle	bb_tx	bb_ty	bb_tz	hip_flexion_r	hip_adduction_r	hip_rotation_r	knee_angle_r	knee_angle_r_beta	ankle_angle_r	subtalar_angle_r	mtp_angle_r	crank_angle_r	hip_flexion_l	hip_adduction_l	hip_rotation_l	knee_angle_l	knee_angle_l_beta	ankle_angle_l	subtalar_angle_l	mtp_angle_l	crank_angle_l	lumbar_extension	lumbar_bending	lumbar_rotation	arm_flex_r	arm_add_r	arm_rot_r	elbow_flex_r	pro_sup_r	wrist_flex_r	wrist_dev_r	arm_flex_l	arm_add_l	arm_rot_l	elbow_flex_l	pro_sup_l	wrist_flex_l	wrist_dev_l
      0.00500000	    -15.17910367	      0.61514178	      5.16908652	      0.18979227	      1.04072375	     -0.24294029	      0.00000000	      0.50000000	      0.00000000	      0.25000000	     42.39381811	     -8.80651737	     -2.68666745	     68.41854683	      1.19412891	     13.44245160	     -2.68993168	      0.00000000	      0.00000000	     85.72553961	     -3.77447481	     -0.11398824	     90.37901621	      1.57741141	     -4.35469909	     -6.08462613	      0.00000000	      0.00000000	    -57.79141028	     -0.54027229	     -3.06455836	     81.71681503	    -29.45153391	     38.29599718	     64.15274548	     31.15864381	      0.00000000	      0.00000000	     87.53930196	    -23.81617024	     41.70176502	     65.81873388	     30.44720109	      0.00000000	      0.00000000
      0.01000000	    -15.17817108	      0.58345534	      5.10086196	      0.18977057	      1.04069519	     -0.24282023	      0.00000000	      0.50000000	      0.00000000	      0.25000000	     42.41391739	     -8.70667711	     -2.62834791	     68.41745489	      1.19410985	     13.35563171	     -2.83730133	      0.00000000	      0.00000000	     85.73230106	     -3.86533325	     -0.07629237	     90.40346322	      1.57783809	     -4.22993086	     -5.90917724	      0.00000000	      0.00000000	    -57.78409721	     -0.57852987	     -2.93191301	     82.08716433	    -29.88348806	     39.05637068	     63.49895542	     34.96389939	      0.00000000	      0.00000000	     87.56983474	    -23.59736349	     41.42840459	     64.92819684	     33.89706538	      0.00000000	      0.00000000
      0.01500000	    -15.20849609	      0.56268244	      5.13072084	      0.18976684	      1.04068052	     -0.24289749	      0.00000000	      0.50000000	      0.00000000	      0.25000000	     42.44340849	     -8.72507225	     -2.67018418	     68.42129615	      1.19417690	     13.39401207	     -2.81329792	      0.00000000	      0.00000000	     85.75890375	     -3.83199845	     -0.05371988	     90.36819694	      1.57722258	     -4.30581629	     -5.95326029	      0.00000000	      0.00000000	    -57.74707645	     -0.52728793	     -2.98072355	     82.20643413	    -29.75651083	     38.91390304	     62.63145047	     38.82352524	      0.00000000	      0.00000000	     87.51198217	    -23.67496082	     41.15170218	     64.48098162	     37.20516278	      0.00000000	      0.00000000
      0.02000000	    -15.31115652	      0.52631920	      5.08479259	      0.18978247	      1.04039631	     -0.24280142	      0.00000000	      0.50000000	      0.00000000	      0.25000000	     42.57986074	     -8.64380874	     -2.60881136	     68.44652227	      1.19461718	     13.33110128	     -2.86235902	      0.00000000	      0.00000000	     85.88398742	     -3.89489034	     -0.05181260	     90.40230329	      1.57781784	     -4.21540283	     -5.99105563	      0.00000000	      0.00000000	    -57.60813224	     -0.60721808	     -2.88733343	     81.71758299	    -29.68885793	     37.84318714	     62.69555897	     40.23948168	      0.00000000	      0.00000000	     87.70202104	    -23.65674979	     41.56299333	     63.97903362	     38.75981299	      0.00000000	      0.00000000
      0.02500000	    -15.32102205	      0.48769131	      5.12463763	      0.18975392	      1.04054285	     -0.24295814	      0.00000000	      0.50000000	      0.00000000	      0.25000000	     42.56567072	     -8.67103368	     -2.68033207	     68.45470299	      1.19475996	     13.46516520	     -2.72547797	      0.00000000	      0.00000000	     85.90266540	     -3.84383196	     -0.01051296	     90.41343003	      1.57801204	     -4.25674046	     -6.20852192	      0.00000000	      0.00000000	    -57.59486066	     -0.55028660	     -2.86347707	     81.57674003	    -29.68006981	     37.42446817	     62.68029066	     40.82961644	      0.00000000	      0.00000000	     87.61369784	    -23.65480633	     41.40396674	     64.05844078	     39.39601181	      0.00000000	      0.00000000
